<mxfile host="Electron" modified="2024-02-22T15:48:21.144Z" agent="Mozilla/5.0 (X11; Linux x86_64) AppleWebKit/537.36 (KHTML, like Gecko) draw.io/23.1.5 Chrome/120.0.6099.109 Electron/28.1.0 Safari/537.36" etag="XzKBW4GtltEOFbWvArfv" version="23.1.5" type="device">
  <diagram name="Page-1" id="TATyBpUHCQcRx7ksUjmW">
    <mxGraphModel dx="3218" dy="2362" grid="1" gridSize="10" guides="1" tooltips="1" connect="1" arrows="1" fold="1" page="1" pageScale="1" pageWidth="827" pageHeight="1169" math="0" shadow="0">
      <root>
        <mxCell id="0" />
        <mxCell id="1" parent="0" />
        <mxCell id="gzVj5WT0C2oqSqEzscsq-1" value="lithocholic_acid_lca_metabolism" style="ellipse;whiteSpace=wrap;html=1;" vertex="1" parent="1">
          <mxGeometry x="490" y="730" width="80" height="80" as="geometry" />
        </mxCell>
        <mxCell id="gzVj5WT0C2oqSqEzscsq-2" value="gasliquid_chromatographymass_spectrometry" style="ellipse;whiteSpace=wrap;html=1;" vertex="1" parent="1">
          <mxGeometry x="130" y="830" width="80" height="80" as="geometry" />
        </mxCell>
        <mxCell id="gzVj5WT0C2oqSqEzscsq-3" value="cholestasis" style="ellipse;whiteSpace=wrap;html=1;" vertex="1" parent="1">
          <mxGeometry x="910" y="460" width="80" height="80" as="geometry" />
        </mxCell>
        <mxCell id="gzVj5WT0C2oqSqEzscsq-4" value="radiochromatography" style="ellipse;whiteSpace=wrap;html=1;" vertex="1" parent="1">
          <mxGeometry x="360" y="870" width="80" height="80" as="geometry" />
        </mxCell>
        <mxCell id="gzVj5WT0C2oqSqEzscsq-22" style="edgeStyle=none;rounded=0;orthogonalLoop=1;jettySize=auto;html=1;" edge="1" parent="1" source="gzVj5WT0C2oqSqEzscsq-5" target="gzVj5WT0C2oqSqEzscsq-6">
          <mxGeometry relative="1" as="geometry" />
        </mxCell>
        <mxCell id="gzVj5WT0C2oqSqEzscsq-23" value="examined_in" style="edgeLabel;html=1;align=center;verticalAlign=middle;resizable=0;points=[];" vertex="1" connectable="0" parent="gzVj5WT0C2oqSqEzscsq-22">
          <mxGeometry x="-0.1749" y="-1" relative="1" as="geometry">
            <mxPoint as="offset" />
          </mxGeometry>
        </mxCell>
        <mxCell id="gzVj5WT0C2oqSqEzscsq-24" style="edgeStyle=none;rounded=0;orthogonalLoop=1;jettySize=auto;html=1;" edge="1" parent="1" source="gzVj5WT0C2oqSqEzscsq-5" target="gzVj5WT0C2oqSqEzscsq-7">
          <mxGeometry relative="1" as="geometry" />
        </mxCell>
        <mxCell id="gzVj5WT0C2oqSqEzscsq-25" value="examined_in" style="edgeLabel;html=1;align=center;verticalAlign=middle;resizable=0;points=[];" vertex="1" connectable="0" parent="gzVj5WT0C2oqSqEzscsq-24">
          <mxGeometry x="-0.2644" y="-4" relative="1" as="geometry">
            <mxPoint x="26" y="-4" as="offset" />
          </mxGeometry>
        </mxCell>
        <mxCell id="gzVj5WT0C2oqSqEzscsq-5" value="role_of_the_perivenous_zone" style="ellipse;whiteSpace=wrap;html=1;" vertex="1" parent="1">
          <mxGeometry x="310" y="-10" width="80" height="80" as="geometry" />
        </mxCell>
        <mxCell id="gzVj5WT0C2oqSqEzscsq-6" value="lcainduced_cholestasis" style="ellipse;whiteSpace=wrap;html=1;" vertex="1" parent="1">
          <mxGeometry x="-340" y="200" width="80" height="80" as="geometry" />
        </mxCell>
        <mxCell id="gzVj5WT0C2oqSqEzscsq-7" value="lca_biotransformation" style="ellipse;whiteSpace=wrap;html=1;" vertex="1" parent="1">
          <mxGeometry x="530" y="-330" width="80" height="80" as="geometry" />
        </mxCell>
        <mxCell id="gzVj5WT0C2oqSqEzscsq-26" style="edgeStyle=none;rounded=0;orthogonalLoop=1;jettySize=auto;html=1;entryX=0.688;entryY=0;entryDx=0;entryDy=0;entryPerimeter=0;" edge="1" parent="1" source="gzVj5WT0C2oqSqEzscsq-8" target="gzVj5WT0C2oqSqEzscsq-9">
          <mxGeometry relative="1" as="geometry" />
        </mxCell>
        <mxCell id="gzVj5WT0C2oqSqEzscsq-27" value="impaired" style="edgeLabel;html=1;align=center;verticalAlign=middle;resizable=0;points=[];" vertex="1" connectable="0" parent="gzVj5WT0C2oqSqEzscsq-26">
          <mxGeometry x="-0.1046" y="-4" relative="1" as="geometry">
            <mxPoint as="offset" />
          </mxGeometry>
        </mxCell>
        <mxCell id="gzVj5WT0C2oqSqEzscsq-8" value="drugs" style="ellipse;whiteSpace=wrap;html=1;" vertex="1" parent="1">
          <mxGeometry x="-90" y="460" width="80" height="80" as="geometry" />
        </mxCell>
        <mxCell id="gzVj5WT0C2oqSqEzscsq-9" value="EM_measures" style="ellipse;whiteSpace=wrap;html=1;" vertex="1" parent="1">
          <mxGeometry x="-200" y="700" width="80" height="80" as="geometry" />
        </mxCell>
        <mxCell id="gzVj5WT0C2oqSqEzscsq-29" style="edgeStyle=none;rounded=0;orthogonalLoop=1;jettySize=auto;html=1;entryX=0;entryY=0;entryDx=0;entryDy=0;" edge="1" parent="1" source="gzVj5WT0C2oqSqEzscsq-10" target="gzVj5WT0C2oqSqEzscsq-28">
          <mxGeometry relative="1" as="geometry" />
        </mxCell>
        <mxCell id="gzVj5WT0C2oqSqEzscsq-30" value="were_not" style="edgeLabel;html=1;align=center;verticalAlign=middle;resizable=0;points=[];" vertex="1" connectable="0" parent="gzVj5WT0C2oqSqEzscsq-29">
          <mxGeometry x="-0.0164" y="-1" relative="1" as="geometry">
            <mxPoint y="-1" as="offset" />
          </mxGeometry>
        </mxCell>
        <mxCell id="gzVj5WT0C2oqSqEzscsq-10" value="doses" style="ellipse;whiteSpace=wrap;html=1;" vertex="1" parent="1">
          <mxGeometry x="490" y="530" width="80" height="80" as="geometry" />
        </mxCell>
        <mxCell id="gzVj5WT0C2oqSqEzscsq-12" value="neuroleptics" style="ellipse;whiteSpace=wrap;html=1;" vertex="1" parent="1">
          <mxGeometry x="-220" y="30" width="80" height="80" as="geometry" />
        </mxCell>
        <mxCell id="gzVj5WT0C2oqSqEzscsq-13" value="available_test" style="ellipse;whiteSpace=wrap;html=1;" vertex="1" parent="1">
          <mxGeometry x="410" y="50" width="80" height="80" as="geometry" />
        </mxCell>
        <mxCell id="gzVj5WT0C2oqSqEzscsq-14" value="benzodiazepines" style="ellipse;whiteSpace=wrap;html=1;" vertex="1" parent="1">
          <mxGeometry x="1350" y="100" width="80" height="80" as="geometry" />
        </mxCell>
        <mxCell id="gzVj5WT0C2oqSqEzscsq-16" style="edgeStyle=none;rounded=0;orthogonalLoop=1;jettySize=auto;html=1;" edge="1" parent="1" source="gzVj5WT0C2oqSqEzscsq-1">
          <mxGeometry relative="1" as="geometry">
            <mxPoint x="210" y="860" as="targetPoint" />
          </mxGeometry>
        </mxCell>
        <mxCell id="gzVj5WT0C2oqSqEzscsq-17" value="assessed_by" style="edgeLabel;html=1;align=center;verticalAlign=middle;resizable=0;points=[];" vertex="1" connectable="0" parent="gzVj5WT0C2oqSqEzscsq-16">
          <mxGeometry x="-0.1634" y="-1" relative="1" as="geometry">
            <mxPoint as="offset" />
          </mxGeometry>
        </mxCell>
        <mxCell id="gzVj5WT0C2oqSqEzscsq-18" style="edgeStyle=none;rounded=0;orthogonalLoop=1;jettySize=auto;html=1;entryX=0.688;entryY=0.05;entryDx=0;entryDy=0;entryPerimeter=0;" edge="1" parent="1" source="gzVj5WT0C2oqSqEzscsq-1" target="gzVj5WT0C2oqSqEzscsq-4">
          <mxGeometry relative="1" as="geometry" />
        </mxCell>
        <mxCell id="gzVj5WT0C2oqSqEzscsq-19" value="assessed_by" style="edgeLabel;html=1;align=center;verticalAlign=middle;resizable=0;points=[];" vertex="1" connectable="0" parent="gzVj5WT0C2oqSqEzscsq-18">
          <mxGeometry x="-0.232" y="1" relative="1" as="geometry">
            <mxPoint as="offset" />
          </mxGeometry>
        </mxCell>
        <mxCell id="gzVj5WT0C2oqSqEzscsq-20" style="edgeStyle=none;rounded=0;orthogonalLoop=1;jettySize=auto;html=1;entryX=0;entryY=1;entryDx=0;entryDy=0;" edge="1" parent="1" source="gzVj5WT0C2oqSqEzscsq-1" target="gzVj5WT0C2oqSqEzscsq-3">
          <mxGeometry relative="1" as="geometry" />
        </mxCell>
        <mxCell id="gzVj5WT0C2oqSqEzscsq-21" value="relationship_to" style="edgeLabel;html=1;align=center;verticalAlign=middle;resizable=0;points=[];" vertex="1" connectable="0" parent="gzVj5WT0C2oqSqEzscsq-20">
          <mxGeometry x="0.1258" relative="1" as="geometry">
            <mxPoint as="offset" />
          </mxGeometry>
        </mxCell>
        <mxCell id="gzVj5WT0C2oqSqEzscsq-28" value="clinically_equivalent" style="ellipse;whiteSpace=wrap;html=1;" vertex="1" parent="1">
          <mxGeometry x="780" y="800" width="80" height="80" as="geometry" />
        </mxCell>
        <mxCell id="gzVj5WT0C2oqSqEzscsq-32" style="edgeStyle=none;rounded=0;orthogonalLoop=1;jettySize=auto;html=1;entryX=-0.037;entryY=0.375;entryDx=0;entryDy=0;entryPerimeter=0;" edge="1" parent="1" source="gzVj5WT0C2oqSqEzscsq-13" target="gzVj5WT0C2oqSqEzscsq-14">
          <mxGeometry relative="1" as="geometry" />
        </mxCell>
        <mxCell id="gzVj5WT0C2oqSqEzscsq-33" value="able_to_distinguish_between" style="edgeLabel;html=1;align=center;verticalAlign=middle;resizable=0;points=[];" vertex="1" connectable="0" parent="gzVj5WT0C2oqSqEzscsq-32">
          <mxGeometry x="-0.3448" y="-6" relative="1" as="geometry">
            <mxPoint x="29" y="-10" as="offset" />
          </mxGeometry>
        </mxCell>
        <mxCell id="gzVj5WT0C2oqSqEzscsq-34" style="edgeStyle=none;rounded=0;orthogonalLoop=1;jettySize=auto;html=1;entryX=1.013;entryY=0.675;entryDx=0;entryDy=0;entryPerimeter=0;" edge="1" parent="1" source="gzVj5WT0C2oqSqEzscsq-13" target="gzVj5WT0C2oqSqEzscsq-12">
          <mxGeometry relative="1" as="geometry" />
        </mxCell>
        <mxCell id="gzVj5WT0C2oqSqEzscsq-35" value="able_to_distinguish_between" style="edgeLabel;html=1;align=center;verticalAlign=middle;resizable=0;points=[];" vertex="1" connectable="0" parent="gzVj5WT0C2oqSqEzscsq-34">
          <mxGeometry x="0.2229" y="1" relative="1" as="geometry">
            <mxPoint as="offset" />
          </mxGeometry>
        </mxCell>
      </root>
    </mxGraphModel>
  </diagram>
</mxfile>
